<?xml version="1.0" encoding="UTF-8" standalone="no"?>
<svg width="56px" height="48px" viewBox="0 0 56 48" version="1.1" xmlns="http://www.w3.org/2000/svg" xmlns:xlink="http://www.w3.org/1999/xlink" xmlns:sketch="http://www.bohemiancoding.com/sketch/ns">
    <!-- Generator: Sketch 3.3.3 (12072) - http://www.bohemiancoding.com/sketch -->
    <title>iconfont-qian (2)</title>
    <desc>Created with Sketch.</desc>
    <defs></defs>
    <g id="Page-1" stroke="none" stroke-width="1" fill="none" fill-rule="evenodd" sketch:type="MSPage">
        <g id="首页" sketch:type="MSArtboardGroup" transform="translate(-1292.000000, -1337.000000)" fill="#CE7120">
            <g id="鳄鱼配系列" sketch:type="MSLayerGroup" transform="translate(460.000000, 1262.000000)">
                <g id="Group" transform="translate(720.000000, 0.000000)" sketch:type="MSShapeGroup">
                    <path d="M167.957881,105.122523 C167.957881,100.609232 161.860641,97.07378 154.389682,97.07378 C153.892558,97.07378 153.294564,97.0916773 152.812474,97.1223667 L152.812474,83.9527042 C152.881877,83.6191687 152.856179,83.2804108 152.856179,82.9342592 C152.856179,78.4869829 147.187126,75.0028753 139.716166,75.0028753 C132.244974,75.0028753 126.393353,78.4869829 126.393353,82.9342592 C126.393353,83.2804108 126.44067,83.6191687 126.509898,83.9527042 L126.509898,87.5640293 C126.088354,87.5410856 125.661099,87.5268851 125.226735,87.5268851 C117.755775,87.5268851 112.013007,91.0102885 112.013007,95.4573301 C112.013007,95.8043619 111.951297,96.1429438 112.020699,96.4766553 L112.020699,114.922034 L112.111546,114.922034 C112.345977,119.126611 118.01369,122.385623 125.226735,122.385623 C132.43436,122.385623 138.463538,119.131834 138.706418,114.922034 L138.796974,114.922034 L138.796974,114.153682 C139.223588,114.17868 139.277082,114.219051 139.716166,114.219051 C140.214689,114.219051 140.701557,114.197692 141.183471,114.166064 L141.183471,114.382944 L141.28067,114.382944 L141.252408,114.885594 C141.252408,119.221027 147.108574,122.997125 154.584778,122.997125 C162.061915,122.997125 167.917615,119.549692 167.917615,115.140499 L167.90328,114.640137 L167.987018,114.640137 L167.987018,106.156518 C168.057586,105.81776 167.957881,105.474601 167.957881,105.122523 L167.957881,105.122523 Z M154.584778,99.6325672 C161.15729,99.6325672 165.737636,102.525711 165.737636,105.122523 C165.737636,107.7191 161.15729,110.612303 154.584778,110.612303 C148.012499,110.612303 143.432154,107.7191 143.432154,105.122523 C143.432154,102.525711 148.012499,99.6325672 154.584778,99.6325672 L154.584778,99.6325672 Z M165.856221,109.622553 L165.856221,111.011384 C165.22775,113.791746 160.232212,116.116284 154.584545,116.116284 C148.941016,116.116284 143.945944,113.793389 143.313569,111.015726 L143.313569,109.622553 C145.715276,111.777154 149.825303,113.171032 154.584545,113.171032 C159.344487,113.171032 163.454514,111.777154 165.856221,109.622553 L165.856221,109.622553 Z M139.716166,98.4245868 C139.282502,98.4245868 139.219917,98.4057506 138.796741,98.3782885 L138.796741,96.4766553 C138.840037,96.2701614 138.869174,96.0613203 138.889394,95.8504254 C139.280462,95.8740733 139.312337,95.8885086 139.716166,95.8885086 C144.449652,95.8885086 148.332067,94.4815452 150.640479,92.3262396 L150.640479,93.394621 C150.020866,96.1333203 145.280271,98.4245868 139.716166,98.4245868 L139.716166,98.4245868 Z M150.822989,97.3593741 C150.630223,97.3905917 150.435825,97.4185232 150.246439,97.4540831 C150.441944,97.29911 150.647297,97.1485379 150.822989,96.9846455 L150.822989,97.3593741 L150.822989,97.3593741 Z M139.716166,77.5247531 C146.192412,77.5247531 150.523001,80.3755306 150.523001,82.9342592 C150.523001,85.492577 146.192412,88.3431198 139.715933,88.3431198 C133.239455,88.3431198 128.726531,85.492577 128.726531,82.9342592 C128.726531,80.3755306 133.239455,77.5247531 139.716166,77.5247531 L139.716166,77.5247531 Z M128.609286,87.3680391 C128.810502,87.5486553 129.040212,87.7157751 129.265319,87.8851247 C129.051109,87.8455159 128.828275,87.8177604 128.609286,87.784489 L128.609286,87.3680391 L128.609286,87.3680391 Z M125.226735,90.047824 C131.703213,90.047824 136.398705,92.8993056 136.398705,95.4573301 C136.398705,98.0165868 131.703213,100.866425 125.226735,100.866425 C118.750314,100.866425 114.237332,98.0165868 114.237332,95.4573301 C114.237332,92.8993056 118.750314,90.047824 125.226735,90.047824 L125.226735,90.047824 Z M114.119913,99.8919902 C116.487238,102.014787 120.53672,103.388303 125.226735,103.388303 C129.916574,103.388303 134.148857,102.014787 136.515251,99.8919902 L136.515251,101.260225 C135.896337,103.99957 130.79113,106.290425 125.226735,106.290425 C119.665136,106.290425 114.743605,104.001213 114.119913,101.263863 L114.119913,99.8919902 L114.119913,99.8919902 Z M114.119913,104.852773 C116.428266,107.005555 120.492549,108.412518 125.226735,108.412518 C129.960279,108.412518 134.207771,107.005555 136.515251,104.850249 L136.515251,105.917692 C135.896337,108.657271 130.79113,110.947892 125.226735,110.947892 C119.665136,110.947892 114.743605,108.659619 114.119913,105.922269 L114.119913,104.852773 L114.119913,104.852773 Z M114.119913,109.51065 C116.428266,111.663961 120.492549,113.070455 125.226735,113.070455 C129.960279,113.070455 134.207771,111.663961 136.515251,109.508127 L136.515251,110.575628 C135.896337,113.315443 130.79113,115.606005 125.226735,115.606005 C119.665136,115.606005 114.743605,113.317731 114.119913,110.579501 L114.119913,109.51065 L114.119913,109.51065 Z M125.226735,120.263296 C119.453665,120.263296 114.382372,117.796225 114.080287,114.922034 L114.119913,114.922034 L114.119913,114.168176 C116.428266,116.320254 120.492549,117.727218 125.226735,117.727218 C129.960279,117.727218 134.207771,116.320254 136.515251,114.166064 L136.515251,114.922034 L136.554177,114.922034 C136.252325,117.79599 130.999163,120.263296 125.226735,120.263296 L125.226735,120.263296 Z M138.592612,93.7090856 C138.152828,92.504802 136.904512,91.4123619 135.676708,90.4915599 C136.948916,90.7251638 138.297811,90.8642934 139.716166,90.8642934 C144.406181,90.8642934 148.273153,89.4908362 150.640479,87.3680391 L150.640479,88.7362152 C150.021099,91.4758533 145.280271,93.7664156 139.716166,93.7664156 C139.213099,93.7666504 139.081519,93.7444108 138.592612,93.7090856 L138.592612,93.7090856 Z M141.183471,112.035756 C140.700857,112.071961 140.212358,112.096958 139.716166,112.096958 C139.282502,112.096958 139.219917,112.078826 138.796741,112.05066 L138.796741,109.816196 C139.21881,109.843482 139.280462,109.861614 139.716166,109.861614 C140.216029,109.861614 140.702023,109.836616 141.183471,109.80088 L141.183471,112.035756 L141.183471,112.035756 Z M141.183471,107.677379 C140.700857,107.714054 140.212358,107.739756 139.716166,107.739756 C139.282502,107.739756 139.219917,107.720509 138.796741,107.693457 L138.796741,105.157848 C139.21881,105.185134 139.280462,105.203912 139.716166,105.203912 C140.179376,105.203912 140.630289,105.181907 141.07625,105.151863 C141.087846,105.44755 141.124733,105.73778 141.183471,106.023609 L141.183471,107.677379 L141.183471,107.677379 Z M141.497095,102.999081 C140.913494,103.05154 140.320046,103.082289 139.716166,103.082289 C139.282735,103.082289 139.219917,103.063922 138.796974,103.035756 L138.796974,100.501262 C139.21881,100.527667 139.280695,100.546445 139.716166,100.546445 C141.145419,100.546445 142.502764,100.404323 143.780916,100.165731 C142.723792,100.992469 141.941016,101.95065 141.497095,102.999081 L141.497095,102.999081 Z M154.584778,120.843403 C148.578385,120.843403 143.304479,118.213379 143.244866,115.202406 L143.263746,114.640137 L143.295621,114.640137 C145.634044,116.834641 149.767962,118.270005 154.584778,118.270005 C159.399788,118.270005 163.532366,116.835345 165.871721,114.640137 L165.907675,114.640137 L165.925157,115.150357 C165.925157,118.182924 160.626252,120.843403 154.584778,120.843403 L154.584778,120.843403 Z M124.171009,97.1093399 C124.073344,96.9912763 123.996891,96.7593154 123.942231,96.413868 L122.358905,96.413868 C122.346843,97.1734768 122.675267,97.7110416 123.343596,98.0262103 C123.723068,98.2015452 124.297811,98.3196088 125.068583,98.3798729 L125.068583,99.1986308 L125.637149,99.1986308 L125.637149,98.371599 C126.243592,98.3393252 126.76688,98.2265428 127.208703,98.0346601 C127.9321,97.7224841 128.294264,97.2204792 128.294264,96.5294083 C128.294264,96.0053985 128.031338,95.5994523 127.505777,95.3118044 C127.186851,95.1394034 126.563858,94.9404792 125.637149,94.7151491 L125.637149,93.1482249 C126.023671,93.1674719 126.290035,93.2742689 126.437057,93.4693203 C126.521727,93.581868 126.579767,93.7595501 126.610535,94.0036577 L128.153594,94.0036577 C128.129935,93.3462689 127.78939,92.8699658 127.131784,92.5765672 C126.770085,92.3927237 126.271097,92.2831687 125.637149,92.2476088 L125.637149,91.6922054 L125.068583,91.6922054 L125.068583,92.239335 C124.669998,92.2613399 124.365873,92.2953154 124.159413,92.3422592 C123.818635,92.416313 123.509965,92.5511002 123.232995,92.7452714 C123.017852,92.896313 122.850551,93.0753447 122.731267,93.2838924 C122.611983,93.4927335 122.552137,93.7239902 122.552137,93.9788949 C122.552137,94.3658289 122.705569,94.6963716 123.0122,94.9706993 C123.319238,95.2443814 123.846664,95.4585037 124.593486,95.6125379 L125.068583,95.7108851 L125.068583,97.4668753 C124.622855,97.4123619 124.323742,97.2931247 124.171009,97.1093399 L124.171009,97.1093399 Z M125.637149,95.8467873 C125.962019,95.9315795 126.19237,96.0139071 126.32733,96.0931834 C126.555642,96.2307286 126.669215,96.4168606 126.669215,96.6524597 C126.669215,96.9626406 126.548125,97.1801663 126.303904,97.3066797 C126.165041,97.3777408 125.942672,97.4274425 125.637149,97.4544939 L125.637149,95.8467873 L125.637149,95.8467873 Z M124.434635,94.3944645 C124.188549,94.2601467 124.065186,94.0778875 124.065186,93.847335 C124.065186,93.6362054 124.147584,93.4700244 124.311913,93.3476186 C124.4756,93.2259169 124.728271,93.1624254 125.068757,93.1564401 L125.068757,94.600313 C124.782872,94.537467 124.571401,94.4687531 124.434635,94.3944645 L124.434635,94.3944645 Z M153.354468,106.34312 C153.256337,106.225291 153.180116,105.994034 153.125224,105.648587 L151.54184,105.648587 C151.530243,106.408196 151.85826,106.94576 152.526589,107.260929 C152.90606,107.436264 153.481269,107.554093 154.251517,107.614826 L154.251517,108.43288 L154.820608,108.43288 L154.820608,107.606553 C155.426526,107.57334 155.950339,107.460557 156.392162,107.269379 C157.115559,106.956499 157.47749,106.454494 157.47749,105.763423 C157.47749,105.239413 157.214331,104.834406 156.68877,104.546289 C156.369844,104.373242 155.747026,104.174494 154.820608,103.949868 L154.820608,102.382709 C155.206664,102.401487 155.47297,102.508988 155.619817,102.703628 C155.705419,102.815941 155.76276,102.994269 155.793935,103.238377 L157.336587,103.238377 C157.313103,102.580284 156.972616,102.10445 156.315184,101.811462 C155.953078,101.627677 155.455022,101.517183 154.820375,101.481623 L154.820375,100.926689 L154.251517,100.926689 L154.251517,101.473408 C153.852757,101.496059 153.54974,101.53021 153.342406,101.576333 C153.001861,101.650562 152.69319,101.78488 152.415929,101.97999 C152.200845,102.130328 152.033777,102.310474 151.91426,102.518142 C151.795209,102.726983 151.735596,102.958944 151.735596,103.213614 C151.735596,103.599844 151.888737,103.930621 152.196067,104.204773 C152.502697,104.4791 153.029657,104.692988 153.776479,104.846318 L154.251517,104.945604 L154.251517,106.701594 C153.805615,106.646611 153.506735,106.526729 153.354468,106.34312 L153.354468,106.34312 Z M154.820608,105.080802 C155.144953,105.166298 155.37513,105.247922 155.510556,105.327198 C155.738868,105.464743 155.852441,105.651579 155.852441,105.887413 C155.852441,106.196421 155.731118,106.414885 155.487538,106.541164 C155.348266,106.612225 155.125607,106.661516 154.820608,106.688802 L154.820608,105.080802 L154.820608,105.080802 Z M153.617802,103.628479 C153.371542,103.494631 153.24882,103.312606 153.24882,103.082289 C153.24882,102.871159 153.330343,102.704039 153.494905,102.582337 C153.659467,102.459932 153.91103,102.39644 154.251517,102.391159 L154.251517,103.834328 C153.966098,103.77154 153.755093,103.702768 153.617802,103.628479 L153.617802,103.628479 Z M138.567555,84.712313 C138.46989,84.5944841 138.393436,84.3622885 138.338543,84.0170758 L136.755392,84.0170758 C136.743563,84.7767433 137.072279,85.3142494 137.740782,85.6291834 C138.119555,85.8047531 138.694356,85.9228166 139.46507,85.9830807 L139.46507,86.8016039 L140.033694,86.8016039 L140.033694,85.9748655 C140.639846,85.9415941 141.163659,85.8297506 141.605249,85.6376919 C142.328645,85.324577 142.690576,84.823511 142.690576,84.131912 C142.690576,83.6086064 142.428116,83.2026601 141.902264,82.9145428 C141.583163,82.7422005 140.960345,82.5427482 140.033694,82.318357 L140.033694,80.7509633 C140.419983,80.7706797 140.686989,80.8773007 140.833602,81.0723521 C140.918739,81.1841956 140.976079,81.3627579 141.007488,81.6068655 L142.549673,81.6068655 C142.526189,80.9485379 142.185702,80.4729389 141.528329,80.1797751 C141.166164,79.9959315 140.668341,79.8861418 140.033694,79.8508166 L140.033694,79.2950024 L139.46507,79.2950024 L139.46507,79.8426015 C139.066077,79.8643716 138.763059,79.8985232 138.555725,79.9455257 C138.215879,80.0192861 137.906743,80.1529584 137.629016,80.3480098 C137.413931,80.4985819 137.247097,80.6787873 137.12758,80.8871002 C137.008529,81.0952372 136.948683,81.327198 136.948683,81.581868 C136.948683,81.9690367 137.102056,82.2993447 137.409153,82.5730269 C137.715784,82.8474132 138.242743,83.0614768 138.989798,83.2146308 L139.46507,83.3140929 L139.46507,85.0699071 C139.018934,85.0146308 138.719821,84.8959218 138.567555,84.712313 L138.567555,84.712313 Z M140.033694,83.4491149 C140.358039,83.5343765 140.588449,83.6168802 140.723875,83.6963912 C140.951954,83.8330562 141.065761,84.0200685 141.065761,84.2557262 C141.065761,84.5656137 140.944204,84.7833741 140.700857,84.9096528 C140.561353,84.9807139 140.338693,85.0300049 140.033694,85.0577604 L140.033694,83.4491149 L140.033694,83.4491149 Z M138.831122,81.9976724 C138.584862,81.8628851 138.462139,81.6806846 138.462139,81.4503081 C138.462139,81.2394132 138.543896,81.0723521 138.708458,80.9506504 C138.872554,80.8291247 139.12435,80.7647531 139.46507,80.7592372 L139.46507,82.2032861 C139.179184,82.1397946 138.968412,82.0719609 138.831122,81.9976724 L138.831122,81.9976724 Z" id="iconfont-qian-(2)"></path>
                </g>
            </g>
        </g>
    </g>
</svg>