<?xml version="1.0" encoding="utf-8"?>
<!-- Generator: Adobe Illustrator 17.0.0, SVG Export Plug-In . SVG Version: 6.00 Build 0)  -->
<!DOCTYPE svg PUBLIC "-//W3C//DTD SVG 1.1//EN" "http://www.w3.org/Graphics/SVG/1.1/DTD/svg11.dtd">
<svg version="1.1" id="图层_1" xmlns:sketch="http://www.bohemiancoding.com/sketch/ns"
	 xmlns="http://www.w3.org/2000/svg" xmlns:xlink="http://www.w3.org/1999/xlink" x="0px" y="0px" width="40px" height="41px"
	 viewBox="0 0 40 41" enable-background="new 0 0 40 41" xml:space="preserve">
<title>Fill 5</title>
<desc>Created with Sketch.</desc>
<path fill="#AAAAAA" d="M20,0.364c-11.028,0-20,8.972-20,20s8.972,20,20,20s20-8.972,20-20S31.028,0.364,20,0.364z M26.738,25.324
	l0.332,0.619c0.217,0.424,0.137,0.946-0.203,1.286c-0.212,0.212-0.495,0.323-0.782,0.323c-0.168,0-0.345-0.04-0.504-0.119
	l-0.619-0.332c-1.264-0.685-2.997-1.622-4.96-1.622c-1.963,0-3.696,0.937-4.96,1.622l-0.619,0.332
	c-0.429,0.217-0.946,0.133-1.286-0.203c-0.336-0.34-0.42-0.862-0.199-1.286l0.327-0.619c0.685-1.264,1.622-2.997,1.622-4.96
	c0-1.958-0.937-3.691-1.622-4.96l-0.327-0.619c-0.221-0.424-0.137-0.946,0.199-1.282c0.34-0.34,0.858-0.424,1.286-0.203l0.619,0.332
	c1.264,0.681,2.997,1.618,4.96,1.618c1.963,0,3.696-0.937,4.96-1.618l0.619-0.332c0.429-0.221,0.951-0.137,1.286,0.203
	c0.34,0.336,0.42,0.858,0.203,1.282l-0.332,0.619c-0.685,1.269-1.622,3.002-1.622,4.96C25.115,22.327,26.053,24.06,26.738,25.324z"
	/>
</svg>
