<?xml version="1.0" encoding="UTF-8" standalone="no"?>
<svg width="41px" height="40px" viewBox="0 0 41 40" version="1.1" xmlns="http://www.w3.org/2000/svg" xmlns:xlink="http://www.w3.org/1999/xlink" xmlns:sketch="http://www.bohemiancoding.com/sketch/ns">
    <!-- Generator: Sketch 3.3.3 (12072) - http://www.bohemiancoding.com/sketch -->
    <title>iconfont-wode copy</title>
    <desc>Created with Sketch.</desc>
    <defs></defs>
    <g id="Page-1" stroke="none" stroke-width="1" fill="none" fill-rule="evenodd" sketch:type="MSPage">
        <g id="移动版效果图" sketch:type="MSArtboardGroup" transform="translate(-639.000000, -1157.000000)" fill="#AAAAAA">
            <g id="Rectangle-348-Copy" sketch:type="MSLayerGroup" transform="translate(0.000000, 1147.000000)">
                <path d="M675.71719,41.0909446 L666.870458,37.6547231 C666.870458,37.6547231 665.184118,37.0016938 664.528497,36.3596743 C664.107516,35.9469055 664.137582,34.9732248 664.510392,33.7293811 C664.883137,32.4857329 669.417974,27.4315309 669.417974,22.840456 C669.417974,15.7489251 664.741438,10 658.97268,10 C653.204183,10 648.527647,15.7489251 648.527647,22.840456 C648.527647,27.2378502 652.568497,32.4801303 653.067582,33.432899 C653.566732,34.3859283 653.445229,35.8377199 653.051503,36.2779805 C652.459739,36.9390879 650.297974,37.6012378 650.297974,37.6012378 L642.322876,41.1443648 C640.459608,41.8110749 639,43.562671 639,45.5389577 L639,46.4759609 C639,48.6326384 640.75732,49.9521173 642.916993,49.9521173 L675.123137,49.9521173 C677.283007,49.9521173 679.040065,48.6326384 679.040065,46.4759609 L679.040065,45.5389577 C679.040065,43.562671 677.580719,41.7576547 675.71719,41.0909446 L675.71719,41.0909446 Z" id="iconfont-wode-copy" sketch:type="MSShapeGroup"></path>
            </g>
        </g>
    </g>
</svg>