<?xml version="1.0" encoding="utf-8"?>
<!-- Generator: Adobe Illustrator 17.0.0, SVG Export Plug-In . SVG Version: 6.00 Build 0)  -->
<!DOCTYPE svg PUBLIC "-//W3C//DTD SVG 1.1//EN" "http://www.w3.org/Graphics/SVG/1.1/DTD/svg11.dtd">
<svg version="1.1" id="图层_1" xmlns:sketch="http://www.bohemiancoding.com/sketch/ns"
	 xmlns="http://www.w3.org/2000/svg" xmlns:xlink="http://www.w3.org/1999/xlink" x="0px" y="0px" width="40px" height="38px"
	 viewBox="0 0 40 38" enable-background="new 0 0 40 38" xml:space="preserve">
<title>iconfont-shouye</title>
<desc>Created with Sketch.</desc>
<g id="Page-1" sketch:type="MSPage">
	<g id="移动版效果图" transform="translate(-76.000000, -1158.000000)" sketch:type="MSArtboardGroup">
		<g id="Rectangle-348-Copy" transform="translate(0.000000, 1147.000000)" sketch:type="MSLayerGroup">
			<g id="首页-_x2B_-iconfont-shouye" transform="translate(70.000000, 11.000000)" sketch:type="MSShapeGroup">
				<path id="iconfont-shouye" fill="#AAAAAA" d="M39.548,21.589L26.621,7.792c-0.01-0.01-0.253-0.284-0.594-0.284
					c-0.402,0-0.592,0.274-0.603,0.284L12.497,21.589h0.024l-1.046,1.12v15.229c0,0,1.192,0.028,2.663,0.028h6.689
					c-0.006-0.078-0.01-0.158-0.01-0.238v-10.16c0-1.466,1.09-2.654,2.435-2.654h5.627c1.344,0,2.435,1.189,2.435,2.654v10.16
					c0,0.08-0.004,0.16-0.01,0.238h6.599c1.472,0,2.665-0.027,2.665-0.027V22.709l-1.046-1.12H39.548L39.548,21.589z M29.028,1.975
					c-1.668-1.664-4.373-1.664-6.041,0L6,18.913c0.629,1.22,1.751,2.146,3.104,2.515L25.162,5.485c0.1-0.099,0.198-0.187,0.296-0.26
					c0.193-0.172,0.379-0.244,0.565-0.237c0.185-0.007,0.372,0.065,0.565,0.237c0.097,0.073,0.195,0.161,0.296,0.26l16.061,15.946
					c1.347-0.365,2.465-1.28,3.098-2.489L29.028,1.975L29.028,1.975z"/>
			</g>
		</g>
	</g>
</g>
</svg>
