<?xml version="1.0" encoding="UTF-8" standalone="no"?>
<svg width="48px" height="47px" viewBox="0 0 48 47" version="1.1" xmlns="http://www.w3.org/2000/svg" xmlns:xlink="http://www.w3.org/1999/xlink" xmlns:sketch="http://www.bohemiancoding.com/sketch/ns">
    <!-- Generator: Sketch 3.3.3 (12072) - http://www.bohemiancoding.com/sketch -->
    <title>iconfont-gupiao</title>
    <desc>Created with Sketch.</desc>
    <defs></defs>
    <g id="Page-1" stroke="none" stroke-width="1" fill="none" fill-rule="evenodd" sketch:type="MSPage">
        <g id="首页" sketch:type="MSArtboardGroup" transform="translate(-1296.000000, -1954.000000)" fill="#E9862F">
            <g id="小鳄系列" sketch:type="MSLayerGroup" transform="translate(460.000000, 1880.000000)">
                <path d="M842.832072,103.266932 C843.398747,103.733493 844.107511,103.984848 844.831562,103.984848 C844.955766,103.984848 845.07997,103.977435 845.204174,103.963067 C846.056862,103.860661 846.830136,103.414123 847.349652,102.727464 L853.851282,94.1120201 L860.32448,99.5845778 C860.980734,100.138643 861.832581,100.414223 862.687027,100.312123 C863.540632,100.222249 864.321397,99.7893908 864.849244,99.1090754 L879.717015,79.9755664 C879.825703,79.8358656 879.911078,79.6853892 879.993473,79.5352949 L882.603511,76.4488087 C884.002008,74.7949437 883.400709,73.7214331 881.267766,74.0635778 L868.967384,76.0356672 C866.833218,76.3780412 866.389601,77.8584266 867.981244,79.3278071 L870.440862,81.5971811 L861.88448,92.6083258 L855.376964,87.1052754 C854.714136,86.5482298 853.85755,86.2852591 852.99141,86.3801762 C852.131537,86.476316 851.347792,86.9237713 850.824989,87.6175372 L844.295308,96.2709632 L841.159486,93.6946754 C839.809066,92.5844819 837.817906,92.7826461 836.71383,94.14129 C835.609753,95.4977941 835.807945,97.4967079 837.159282,98.604838 L842.832072,103.266932 L842.832072,103.266932 Z M879.860021,88.8269274 L865.360734,106.457888 C864.709524,107.282108 863.053371,106.098701 862.25411,105.420449 L856.426696,100.301653 C855.627435,99.6234006 854.429269,100.77127 853.764683,101.58502 L846.992862,109.880176 C846.329193,110.693926 845.135231,109.761339 844.342238,109.075674 L838.433575,104.383392 C837.373371,103.365136 836.362085,104.427259 836.362085,106.457888 L836.398543,119.024924 C836.400607,120.078718 837.258416,120.940537 838.303104,120.941454 L882.057779,120.976074 C883.103384,120.976991 883.958136,120.115171 883.958136,119.061378 C883.958136,119.061378 884.002008,91.92289 884.002008,89.8630672 C884.002925,87.1011485 881.818925,86.5712331 879.860021,88.8269274 L879.860021,88.8269274 Z" id="iconfont-gupiao" sketch:type="MSShapeGroup"></path>
            </g>
        </g>
    </g>
</svg>