<?xml version="1.0" encoding="utf-8"?>
<!-- Generator: Adobe Illustrator 17.0.0, SVG Export Plug-In . SVG Version: 6.00 Build 0)  -->
<!DOCTYPE svg PUBLIC "-//W3C//DTD SVG 1.1//EN" "http://www.w3.org/Graphics/SVG/1.1/DTD/svg11.dtd">
<svg version="1.1" id="图层_1" xmlns:sketch="http://www.bohemiancoding.com/sketch/ns"
	 xmlns="http://www.w3.org/2000/svg" xmlns:xlink="http://www.w3.org/1999/xlink" x="0px" y="0px" width="41px" height="40px"
	 viewBox="0 0 41 40" enable-background="new 0 0 41 40" xml:space="preserve">
<title>iconfont-wode copy</title>
<desc>Created with Sketch.</desc>
<g id="Page-1" sketch:type="MSPage">
	<g id="移动版效果图" transform="translate(-639.000000, -1157.000000)" sketch:type="MSArtboardGroup">
		<g id="Rectangle-348-Copy" transform="translate(0.000000, 1147.000000)" sketch:type="MSLayerGroup">
			<path id="iconfont-wode-copy" sketch:type="MSShapeGroup" fill="#01ABFF" d="M675.717,41.091l-8.847-3.436
				c0,0-1.686-0.653-2.342-1.295c-0.421-0.413-0.391-1.386-0.018-2.63c0.373-1.244,4.908-6.298,4.908-10.889
				c0-7.092-4.677-12.84-10.445-12.84c-5.768,0-10.445,5.749-10.445,12.84c0,4.397,4.041,9.64,4.54,10.592
				c0.499,0.953,0.378,2.405-0.016,2.845c-0.592,0.661-2.754,1.323-2.754,1.323l-7.975,3.543C640.46,41.811,639,43.563,639,45.539
				v0.937c0,2.157,1.757,3.476,3.917,3.476h32.206c2.16,0,3.917-1.319,3.917-3.476v-0.937
				C679.04,43.563,677.581,41.758,675.717,41.091L675.717,41.091z"/>
		</g>
	</g>
</g>
</svg>
