<?xml version="1.0" encoding="UTF-8" standalone="no"?>
<svg width="40px" height="38px" viewBox="0 0 40 38" version="1.1" xmlns="http://www.w3.org/2000/svg" xmlns:xlink="http://www.w3.org/1999/xlink" xmlns:sketch="http://www.bohemiancoding.com/sketch/ns">
    <!-- Generator: Sketch 3.3.3 (12072) - http://www.bohemiancoding.com/sketch -->
    <title>iconfont-shouye</title>
    <desc>Created with Sketch.</desc>
    <defs></defs>
    <g id="Page-1" stroke="none" stroke-width="1" fill="none" fill-rule="evenodd" sketch:type="MSPage">
        <g id="移动版效果图" sketch:type="MSArtboardGroup" transform="translate(-76.000000, -1158.000000)" fill="#01ABFF">
            <g id="Rectangle-348-Copy" sketch:type="MSLayerGroup" transform="translate(0.000000, 1147.000000)">
                <g id="首页-+-iconfont-shouye" transform="translate(70.000000, 11.000000)" sketch:type="MSShapeGroup">
                    <path d="M39.5479748,21.5887906 L26.6210818,7.79197 C26.6106667,7.78159977 26.3685031,7.50761516 26.026717,7.50761516 C25.6246038,7.50761516 25.4343648,7.78159977 25.4241509,7.79197 L12.4970566,21.5887906 L12.5206541,21.5887906 L11.4748176,22.7085756 L11.4748176,37.9374905 C11.4748176,37.9374905 12.6666667,37.9650944 14.1381635,37.9650944 L20.8270692,37.9650944 C20.8207296,37.8868417 20.8170063,37.8075871 20.8170063,37.7275309 L20.8170063,27.5670555 C20.8170063,26.1013456 21.9072201,24.9128766 23.2517736,24.9128766 L28.8787421,24.9128766 C30.2230943,24.9128766 31.3136604,26.101546 31.3136604,27.5670555 L31.3136604,37.7275309 C31.3136604,37.8077374 31.3097358,37.8870421 31.3032453,37.9650944 L37.9023396,37.9650944 C39.3740377,37.9650944 40.567044,37.9376909 40.567044,37.9376909 L40.567044,22.7085756 L39.5212075,21.5887906 L39.5479748,21.5887906 L39.5479748,21.5887906 Z M29.027522,1.97496976 C27.3598491,0.311373717 24.6540881,0.311373717 22.9864151,1.97496976 L6,18.9132701 C6.62872956,20.1334509 7.75099371,21.059057 9.10379874,21.4285279 L25.1621635,5.48511883 C25.2625912,5.38592528 25.3606541,5.2986049 25.457761,5.22541208 C25.6507673,5.05322611 25.8370818,4.98118554 26.0225912,4.98824933 C26.2079497,4.98118554 26.3942642,5.05322611 26.5874717,5.22541208 C26.6845283,5.2986049 26.7826415,5.38592528 26.8830692,5.48511883 L42.9437987,21.4308825 C44.2903145,21.0663212 45.408805,20.1508349 46.0418616,18.9422266 L29.027522,1.97496976 L29.027522,1.97496976 Z" id="iconfont-shouye"></path>
                </g>
            </g>
        </g>
    </g>
</svg>