<?xml version="1.0" encoding="UTF-8" standalone="no"?>
<svg width="41px" height="40px" viewBox="0 0 41 40" version="1.1" xmlns="http://www.w3.org/2000/svg" xmlns:xlink="http://www.w3.org/1999/xlink" xmlns:sketch="http://www.bohemiancoding.com/sketch/ns">
    <!-- Generator: Sketch 3.3.3 (12072) - http://www.bohemiancoding.com/sketch -->
    <title>iconfont-touzilicai</title>
    <desc>Created with Sketch.</desc>
    <defs></defs>
    <g id="Page-1" stroke="none" stroke-width="1" fill="none" fill-rule="evenodd" sketch:type="MSPage">
        <g id="移动版效果图" sketch:type="MSArtboardGroup" transform="translate(-451.000000, -1156.000000)" fill="#AAAAAA">
            <g id="Rectangle-348-Copy" sketch:type="MSLayerGroup" transform="translate(0.000000, 1147.000000)">
                <path d="M482.178119,11.3485625 C481.737598,10.8515437 481.212562,10.4517753 480.606773,10.1487362 C480.081505,9.92668121 479.443357,9.79736138 478.683821,9.75689828 C477.924515,9.71660885 477.064139,9.95498801 476.098582,10.4800242 C475.464544,10.8113122 474.584023,11.2797926 473.452967,11.8858129 C472.32191,12.4916016 471.178871,13.0976219 470.019334,13.7074627 C468.694472,14.4224265 467.288683,15.1697492 465.802142,15.9413266 L484.581534,15.9413266 L482.178119,11.3485625 L482.178119,11.3485625 Z M481.010651,36.9233238 C479.981766,36.9233238 479.194211,36.7168983 478.651751,36.3078679 C478.109465,35.8947275 477.717627,35.442687 477.485152,34.9434106 C477.19259,34.3537145 477.028828,33.6778245 476.998784,32.91603 C476.998784,31.8012398 477.386339,30.8583165 478.165326,30.096522 C478.944313,29.334496 479.891346,28.9514569 481.00631,28.9514569 L491.009725,28.9514569 L491.009725,22.9510517 L491.018292,22.9510517 C491.018292,21.8363194 490.63097,20.8850025 489.851751,20.1100676 C489.072764,19.3310806 488.125789,18.9435264 487.010999,18.9435264 L455.007525,18.9435264 C453.892562,18.9435264 452.941245,19.3310806 452.166541,20.1100676 C451.387323,20.8892861 451,21.8363194 451,22.9510517 L451,44.9470575 C451,45.5064786 451.111954,46.0272311 451.33152,46.5138303 C451.551085,47.0002557 451.852272,47.4262471 452.235311,47.7920937 C452.618582,48.1579981 453.057482,48.4465075 453.55699,48.652933 C454.056266,48.8596479 454.585586,48.9629764 455.145239,48.9629764 L487.144428,48.9629764 C487.703849,48.9629764 488.216208,48.8596479 488.685441,48.652933 C489.154385,48.4465075 489.567757,48.1625133 489.920695,47.7920937 C490.27369,47.4219634 490.544834,47.0002557 490.734298,46.5138303 C490.923589,46.0272311 491.022634,45.5064786 491.022634,44.9470575 L491.022634,36.9233238 L481.010651,36.9233238 L481.010651,36.9233238 Z M462.6778,39.0712832 C459.264544,39.0712832 456.501071,36.3078679 456.501071,32.8945539 C456.501071,29.4807767 459.264544,26.7173614 462.6778,26.7173614 C466.091346,26.7173614 468.854761,29.4807767 468.854761,32.8945539 C468.854761,36.3078679 466.087062,39.0712832 462.6778,39.0712832 L462.6778,39.0712832 Z M479.96932,31.4946117 C479.569783,31.8942065 479.372388,32.3832948 479.372388,32.9666812 C479.372388,33.5500676 479.569783,34.0481863 479.96932,34.4610951 C480.368683,34.8740039 480.857771,35.0804873 481.441158,35.0804873 C482.024776,35.0804873 482.513864,34.8740039 482.913227,34.4610951 C483.312764,34.0481863 483.510159,33.5500676 483.510159,32.9666812 C483.510159,32.3832948 483.312764,31.8942065 482.913227,31.4946117 C482.513864,31.0950748 482.024776,30.8974482 481.441158,30.8974482 C480.857771,30.8974482 480.368683,31.0950748 479.96932,31.4946117 L479.96932,31.4946117 Z M462.94055,32.2799663 C462.015977,31.8896334 461.553748,31.4676942 461.553748,31.0186638 C461.607583,30.318577 461.957627,29.9416161 462.603878,29.8832659 C463.362315,29.8832659 463.739219,30.3321226 463.739219,31.2298361 L464.874848,31.2298361 C464.816498,29.9146986 464.246425,29.1696334 463.151317,29.0036711 L463.151317,28.1643078 L462.352648,28.1643078 L462.352648,29.0036711 C461.149696,29.1157984 460.530362,29.8025712 460.503444,31.0636421 C460.503444,31.9613556 461.145181,32.6616161 462.437916,33.1640763 C463.447525,33.5860155 463.950217,34.0751038 463.950217,34.6361457 C463.9233,35.3945249 463.487988,35.7986349 462.648625,35.852412 C461.863329,35.8255524 461.459508,35.3902413 461.43259,34.550878 L460.341997,34.550878 C460.368915,35.9512253 461.001563,36.6917753 462.231433,36.777043 L462.231433,37.6612109 L463.070622,37.6612109 L463.070622,36.7725278 C464.273343,36.6603426 464.919595,35.9467101 465.004863,34.6316306 C465.000289,33.6533961 464.313806,32.8678679 462.94055,32.2799663 L462.94055,32.2799663 Z" id="iconfont-touzilicai" sketch:type="MSShapeGroup"></path>
            </g>
        </g>
    </g>
</svg>