<?xml version="1.0" encoding="utf-8"?>
<!-- Generator: Adobe Illustrator 17.0.0, SVG Export Plug-In . SVG Version: 6.00 Build 0)  -->
<!DOCTYPE svg PUBLIC "-//W3C//DTD SVG 1.1//EN" "http://www.w3.org/Graphics/SVG/1.1/DTD/svg11.dtd">
<svg version="1.1" id="图层_1" xmlns:sketch="http://www.bohemiancoding.com/sketch/ns"
	 xmlns="http://www.w3.org/2000/svg" xmlns:xlink="http://www.w3.org/1999/xlink" x="0px" y="0px" width="41px" height="40px"
	 viewBox="0 0 41 40" enable-background="new 0 0 41 40" xml:space="preserve">
<title>iconfont-touzilicai</title>
<desc>Created with Sketch.</desc>
<g id="Page-1" sketch:type="MSPage">
	<g id="移动版效果图" transform="translate(-451.000000, -1156.000000)" sketch:type="MSArtboardGroup">
		<g id="Rectangle-348-Copy" transform="translate(0.000000, 1147.000000)" sketch:type="MSLayerGroup">
			<path id="iconfont-touzilicai" sketch:type="MSShapeGroup" fill="#01ABFF" d="M482.178,11.349
				c-0.441-0.497-0.966-0.897-1.571-1.2c-0.525-0.222-1.163-0.351-1.923-0.392c-0.759-0.04-1.62,0.198-2.585,0.723
				c-0.634,0.331-1.515,0.8-2.646,1.406c-1.131,0.606-2.274,1.212-3.434,1.822c-1.325,0.715-2.731,1.462-4.217,2.234h18.779
				L482.178,11.349L482.178,11.349z M481.011,36.923c-1.029,0-1.816-0.206-2.359-0.615c-0.542-0.413-0.934-0.865-1.167-1.364
				c-0.293-0.59-0.456-1.266-0.486-2.027c0-1.115,0.388-2.058,1.167-2.82c0.779-0.762,1.726-1.145,2.841-1.145h10.003v-6h0.009
				c0-1.115-0.387-2.066-1.167-2.841c-0.779-0.779-1.726-1.167-2.841-1.167h-32.003c-1.115,0-2.066,0.388-2.841,1.167
				c-0.779,0.779-1.167,1.726-1.167,2.841v21.996c0,0.559,0.112,1.08,0.332,1.567c0.22,0.486,0.521,0.912,0.904,1.278
				c0.383,0.366,0.822,0.654,1.322,0.861c0.499,0.207,1.029,0.31,1.588,0.31h31.999c0.559,0,1.072-0.103,1.541-0.31
				c0.469-0.206,0.882-0.49,1.235-0.861c0.353-0.37,0.624-0.792,0.814-1.278c0.189-0.487,0.288-1.007,0.288-1.567v-8.024H481.011
				L481.011,36.923z M462.678,39.071c-3.413,0-6.177-2.763-6.177-6.177c0-3.414,2.763-6.177,6.177-6.177
				c3.414,0,6.177,2.763,6.177,6.177C468.855,36.308,466.087,39.071,462.678,39.071L462.678,39.071z M479.969,31.495
				c-0.4,0.4-0.597,0.889-0.597,1.472c0,0.583,0.197,1.082,0.597,1.494c0.399,0.413,0.888,0.619,1.472,0.619
				c0.584,0,1.073-0.206,1.472-0.619c0.4-0.413,0.597-0.911,0.597-1.494c0-0.583-0.197-1.072-0.597-1.472
				c-0.399-0.4-0.888-0.597-1.472-0.597C480.858,30.897,480.369,31.095,479.969,31.495L479.969,31.495z M462.941,32.28
				c-0.925-0.39-1.387-0.812-1.387-1.261c0.054-0.7,0.404-1.077,1.05-1.135c0.758,0,1.135,0.449,1.135,1.347h1.136
				c-0.058-1.315-0.628-2.06-1.724-2.226v-0.839h-0.799v0.839c-1.203,0.112-1.822,0.799-1.849,2.06c0,0.898,0.642,1.598,1.934,2.1
				c1.01,0.422,1.512,0.911,1.512,1.472c-0.027,0.758-0.462,1.162-1.302,1.216c-0.785-0.027-1.189-0.462-1.216-1.302h-1.091
				c0.027,1.4,0.66,2.141,1.889,2.226v0.884h0.839v-0.889c1.203-0.112,1.849-0.826,1.934-2.141
				C465,33.653,464.314,32.868,462.941,32.28L462.941,32.28z"/>
		</g>
	</g>
</g>
</svg>
